<svg width="48" height="48" viewBox="0 0 48 48" fill="none" xmlns="http://www.w3.org/2000/svg">
<circle cx="24" cy="24" r="24" fill="#FCCC08"/>
<path d="M38.9248 16.6126C38.8483 16.4306 38.7197 16.2753 38.5551 16.1663C38.3905 16.0573 38.1973 15.9995 37.9998 16.0001H34.1998C33.7438 15.2045 33.1108 14.5245 32.3498 14.0129C31.5888 13.5012 30.7202 13.1716 29.8113 13.0495C28.9025 12.9274 27.9777 13.0162 27.1087 13.3089C26.2396 13.6017 25.4496 14.0905 24.7998 14.7376C24.2309 15.2923 23.7786 15.9551 23.4695 16.6871C23.1604 17.4191 23.0007 18.2055 22.9998 19.0001V19.7626C17.9123 18.4376 13.7498 14.3376 13.7123 14.2876C13.5816 14.1589 13.418 14.0687 13.2394 14.0269C13.0608 13.985 12.8742 13.993 12.6998 14.0501C12.5261 14.1054 12.3705 14.2066 12.2495 14.343C12.1285 14.4794 12.0465 14.646 12.0123 14.8251C10.9248 20.8501 12.7373 24.8876 14.4498 27.2126C15.3088 28.3882 16.3513 29.4181 17.5373 30.2626C15.6248 32.4251 12.6748 33.5501 12.6498 33.5626C12.5088 33.6149 12.3813 33.6984 12.277 33.8068C12.1727 33.9152 12.0942 34.0458 12.0473 34.1887C12.0004 34.3317 11.9865 34.4834 12.0064 34.6326C12.0263 34.7817 12.0796 34.9244 12.1623 35.0501C12.2623 35.2001 12.6373 35.6876 13.5498 36.1501C14.6873 36.7126 16.1873 37.0001 17.9998 37.0001C26.8123 37.0001 34.1873 30.2126 34.9373 21.4751L38.7123 17.7126C38.848 17.568 38.94 17.388 38.9776 17.1933C39.0152 16.9986 38.9969 16.7973 38.9248 16.6126ZM33.2623 20.3251C33.0881 20.4979 32.9855 20.73 32.9748 20.9751C32.4623 28.8376 25.8873 35.0001 17.9998 35.0001C16.6748 35.0001 15.7498 34.8251 15.0998 34.6126C16.5373 33.8376 18.5373 32.4876 19.8373 30.5501C19.9128 30.4328 19.9629 30.3011 19.9844 30.1633C20.006 30.0255 19.9984 29.8848 19.9623 29.7501C19.926 29.614 19.8616 29.487 19.7733 29.3773C19.6851 29.2675 19.5749 29.1774 19.4498 29.1126C19.4373 29.1001 17.5873 28.1376 15.9998 25.9501C14.1998 23.4751 13.4373 20.4626 13.7373 16.9876C15.7123 18.6126 19.4873 21.2626 23.8373 21.9876C23.981 22.0107 24.1279 22.0025 24.2681 21.9637C24.4083 21.9248 24.5385 21.8563 24.6498 21.7626C24.7587 21.6674 24.8461 21.5502 24.9064 21.4188C24.9668 21.2874 24.9986 21.1447 24.9998 21.0001V19.0001C25.0017 18.0826 25.3189 17.1936 25.8983 16.4822C26.4777 15.7708 27.2841 15.2802 28.1822 15.0926C29.0804 14.9051 30.0157 15.032 30.8313 15.4521C31.647 15.8722 32.2935 16.56 32.6623 17.4001C32.7421 17.5788 32.8719 17.7305 33.036 17.837C33.2002 17.9435 33.3917 18.0001 33.5873 18.0001H35.5873L33.2623 20.3251Z" fill="#3D3B3C"/>
</svg>
