<svg width="65" height="64" viewBox="0 0 65 64" fill="none" xmlns="http://www.w3.org/2000/svg">
<circle cx="32.5" cy="32" r="32" fill="#F08080"/>
<path d="M33.5 32C34.05 32 34.521 31.804 34.913 31.412C35.3043 31.0207 35.5 30.55 35.5 30C35.5 29.45 35.3043 28.979 34.913 28.587C34.521 28.1957 34.05 28 33.5 28C32.95 28 32.4793 28.1957 32.088 28.587C31.696 28.979 31.5 29.45 31.5 30C31.5 30.55 31.696 31.0207 32.088 31.412C32.4793 31.804 32.95 32 33.5 32ZM33.5 39.35C35.5333 37.4833 37.0417 35.7873 38.025 34.262C39.0083 32.7373 39.5 31.3833 39.5 30.2C39.5 28.3833 38.9207 26.8957 37.762 25.737C36.604 24.579 35.1833 24 33.5 24C31.8167 24 30.3957 24.579 29.237 25.737C28.079 26.8957 27.5 28.3833 27.5 30.2C27.5 31.3833 27.9917 32.7373 28.975 34.262C29.9583 35.7873 31.4667 37.4833 33.5 39.35ZM33.5 42C30.8167 39.7167 28.8127 37.5957 27.488 35.637C26.1627 33.679 25.5 31.8667 25.5 30.2C25.5 27.7 26.3043 25.7083 27.913 24.225C29.521 22.7417 31.3833 22 33.5 22C35.6167 22 37.479 22.7417 39.087 24.225C40.6957 25.7083 41.5 27.7 41.5 30.2C41.5 31.8667 40.8377 33.679 39.513 35.637C38.1877 37.5957 36.1833 39.7167 33.5 42Z" fill="white"/>
</svg>
