<svg width="48" height="48" viewBox="0 0 48 48" fill="none" xmlns="http://www.w3.org/2000/svg">
<circle cx="24" cy="24" r="24" fill="#FCCC08"/>
<path d="M24 18C22.8133 18 21.6533 18.3519 20.6666 19.0112C19.6799 19.6705 18.9108 20.6075 18.4567 21.7039C18.0026 22.8003 17.8838 24.0067 18.1153 25.1705C18.3468 26.3344 18.9182 27.4035 19.7574 28.2426C20.5965 29.0818 21.6656 29.6532 22.8295 29.8847C23.9933 30.1162 25.1997 29.9974 26.2961 29.5433C27.3925 29.0892 28.3295 28.3201 28.9888 27.3334C29.6481 26.3467 30 25.1867 30 24C30 22.4087 29.3679 20.8826 28.2426 19.7574C27.1174 18.6321 25.5913 18 24 18ZM24 28C23.2089 28 22.4355 27.7654 21.7777 27.3259C21.1199 26.8864 20.6072 26.2616 20.3045 25.5307C20.0017 24.7998 19.9225 23.9956 20.0769 23.2196C20.2312 22.4437 20.6122 21.731 21.1716 21.1716C21.731 20.6122 22.4437 20.2312 23.2196 20.0769C23.9956 19.9225 24.7998 20.0017 25.5307 20.3045C26.2616 20.6072 26.8864 21.1199 27.3259 21.7777C27.7654 22.4355 28 23.2089 28 24C27.9967 25.0599 27.5742 26.0754 26.8248 26.8248C26.0754 27.5742 25.0599 27.9967 24 28ZM29.5 11.5H18.5C16.6435 11.5 14.863 12.2375 13.5503 13.5503C12.2375 14.863 11.5 16.6435 11.5 18.5V29.5C11.5 31.3565 12.2375 33.137 13.5503 34.4497C14.863 35.7625 16.6435 36.5 18.5 36.5H29.5C31.3565 36.5 33.137 35.7625 34.4497 34.4497C35.7625 33.137 36.5 31.3565 36.5 29.5V18.5C36.5 16.6435 35.7625 14.863 34.4497 13.5503C33.137 12.2375 31.3565 11.5 29.5 11.5ZM34.5 29.5C34.5 30.1566 34.3707 30.8068 34.1194 31.4134C33.8681 32.02 33.4998 32.5712 33.0355 33.0355C32.5712 33.4998 32.02 33.8681 31.4134 34.1194C30.8068 34.3707 30.1566 34.5 29.5 34.5H18.5C17.8434 34.5 17.1932 34.3707 16.5866 34.1194C15.98 33.8681 15.4288 33.4998 14.9645 33.0355C14.5002 32.5712 14.1319 32.02 13.8806 31.4134C13.6293 30.8068 13.5 30.1566 13.5 29.5V18.5C13.5 17.1739 14.0268 15.9021 14.9645 14.9645C15.9021 14.0268 17.1739 13.5 18.5 13.5H29.5C30.1566 13.5 30.8068 13.6293 31.4134 13.8806C32.02 14.1319 32.5712 14.5002 33.0355 14.9645C33.4998 15.4288 33.8681 15.98 34.1194 16.5866C34.3707 17.1932 34.5 17.8434 34.5 18.5V29.5ZM32 17.5C32 17.7967 31.912 18.0867 31.7472 18.3334C31.5824 18.58 31.3481 18.7723 31.074 18.8858C30.7999 18.9994 30.4983 19.0291 30.2074 18.9712C29.9164 18.9133 29.6491 18.7704 29.4393 18.5607C29.2296 18.3509 29.0867 18.0836 29.0288 17.7926C28.9709 17.5017 29.0007 17.2001 29.1142 16.926C29.2277 16.6519 29.42 16.4176 29.6666 16.2528C29.9133 16.088 30.2033 16 30.5 16C30.8978 16 31.2794 16.158 31.5607 16.4393C31.842 16.7206 32 17.1022 32 17.5Z" fill="#3D3B3C"/>
</svg>
