<svg width="54" height="49" viewBox="0 0 54 49" fill="none" xmlns="http://www.w3.org/2000/svg">
<path d="M51.8216 24.5655L50.5926 23.3164L50.089 22.8329C50.7375 20.8456 51.1038 18.7771 51.1769 16.6879C51.1769 12.4132 49.4788 8.31349 46.4561 5.29079C43.4334 2.26808 39.3337 0.569946 35.059 0.569946H27.6447C26.8086 0.569946 25.9866 0.771421 25.2472 1.15422C24.3446 0.9326 23.4299 0.771421 22.5071 0.670684H20.9558C16.681 0.670684 12.5814 2.36882 9.55865 5.39152C6.53595 8.41422 4.83781 12.5139 4.83781 16.7886V21.0196L2.44027 23.3366C1.67076 24.1152 1.14822 25.1037 0.938132 26.1781C0.728047 27.2525 0.83977 28.365 1.2593 29.3762C1.67883 30.3874 2.38749 31.2522 3.29647 31.8623C4.20544 32.4724 5.27429 32.8006 6.36902 32.8058C6.60273 32.826 6.83846 32.826 7.07418 32.8058C7.32401 33.7387 7.80956 34.5909 8.4845 35.284C9.41566 36.1888 10.635 36.7379 11.9297 36.8353C12.0415 38.1344 12.6046 39.3533 13.5214 40.2805C14.4403 41.2062 15.6652 41.7649 16.9666 41.852C17.0627 43.1511 17.62 44.3731 18.5381 45.2973C19.5051 46.2714 20.8004 46.8504 22.1712 46.9212C23.5421 46.9919 24.8901 46.5495 25.9523 45.6801L27.6044 47.312C28.1193 47.8298 28.7315 48.2407 29.4057 48.5211C30.0799 48.8015 30.803 48.9458 31.5332 48.9458C32.2634 48.9458 32.9864 48.8015 33.6606 48.5211C34.3349 48.2407 34.947 47.8298 35.4619 47.312C36.4068 46.3942 36.9806 45.1606 37.0737 43.8466C38.3751 43.7595 39.6 43.2008 40.5189 42.2751C41.4167 41.3473 41.9649 40.1368 42.0703 38.8501C43.3694 38.7383 44.5883 38.1751 45.5155 37.2584C46.2518 36.5242 46.7622 35.5942 46.9863 34.5788C47.8627 34.7309 48.7631 34.6632 49.607 34.382C50.4508 34.1007 51.2117 33.6145 51.8216 32.967C52.3754 32.4165 52.8148 31.762 53.1147 31.0411C53.4145 30.3202 53.5689 29.5471 53.5689 28.7663C53.5689 27.9855 53.4145 27.2124 53.1147 26.4915C52.8148 25.7706 52.3754 25.116 51.8216 24.5655ZM27.6447 4.59943H35.059C38.265 4.59943 41.3398 5.87304 43.6068 8.14006C45.8738 10.4071 47.1474 13.4818 47.1474 16.6879C47.112 17.6438 46.9907 18.5946 46.7848 19.5287L38.5042 11.2279C38.3159 11.0413 38.0926 10.8936 37.8471 10.7934C37.6017 10.6931 37.3389 10.6422 37.0737 10.6437H28.0477C27.5956 10.6406 27.1556 10.7896 26.7985 11.0668L22.769 14.1493C22.258 14.4974 21.6339 14.6383 21.0229 14.5435C20.412 14.4488 19.8598 14.1254 19.4783 13.6389C19.0968 13.1524 18.9143 12.539 18.9679 11.9231C19.0216 11.3071 19.3072 10.7346 19.7671 10.3213L26.7179 4.8815C26.9804 4.67429 27.3113 4.57358 27.6447 4.59943ZM5.28106 28.3533C5.00031 28.0606 4.84356 27.6708 4.84356 27.2653C4.84356 26.8598 5.00031 26.47 5.28106 26.1773L8.28303 23.1754C8.42559 23.0326 8.59531 22.9198 8.78217 22.8437C8.96902 22.7676 9.16924 22.7296 9.37099 22.7321C9.56969 22.73 9.76675 22.7682 9.95028 22.8444C10.1338 22.9206 10.3 23.0332 10.4388 23.1754C10.5826 23.3177 10.6967 23.4872 10.7746 23.6739C10.8524 23.8607 10.8925 24.061 10.8925 24.2633C10.8925 24.4657 10.8524 24.666 10.7746 24.8527C10.6967 25.0395 10.5826 25.2089 10.4388 25.3513L7.45698 28.3533C7.15985 28.6251 6.77173 28.7758 6.36902 28.7758C5.96631 28.7758 5.57819 28.6251 5.28106 28.3533ZM10.882 31.2948C10.8814 31.0945 10.9222 30.8961 11.0019 30.7124C11.0817 30.5286 11.1986 30.3633 11.3454 30.227L14.3273 27.225C14.6131 26.9365 15.0019 26.7733 15.4081 26.7714C15.8143 26.7695 16.2046 26.9291 16.4931 27.2149C16.7817 27.5008 16.9448 27.8896 16.9467 28.2958C16.9486 28.7019 16.7891 29.0922 16.5032 29.3808L13.5012 32.3828C13.3211 32.5573 13.1014 32.6855 12.8609 32.7565C12.6204 32.8275 12.3662 32.8392 12.1202 32.7904C11.8742 32.7417 11.6437 32.6341 11.4484 32.4768C11.2531 32.3194 11.0989 32.1171 10.9989 31.8871C10.9194 31.6999 10.8796 31.4982 10.882 31.2948ZM16.3621 35.3243L19.3641 32.3223C19.5067 32.1795 19.6764 32.0668 19.8633 31.9906C20.0501 31.9145 20.2503 31.8766 20.4521 31.8791C20.6508 31.877 20.8478 31.9152 21.0314 31.9914C21.2149 32.0675 21.3811 32.1801 21.5199 32.3223C21.6637 32.4647 21.7778 32.6341 21.8557 32.8209C21.9335 33.0076 21.9736 33.2079 21.9736 33.4103C21.9736 33.6126 21.9335 33.8129 21.8557 33.9997C21.7778 34.1864 21.6637 34.3559 21.5199 34.4982L18.5381 37.4196C18.2468 37.6944 17.8598 37.8449 17.4594 37.839C17.059 37.8332 16.6766 37.6715 16.3934 37.3883C16.1102 37.1052 15.9486 36.7228 15.9427 36.3224C15.9369 35.9219 16.0874 35.535 16.3621 35.2437V35.3243ZM21.399 42.5169C21.2553 42.3745 21.1411 42.2051 21.0633 42.0183C20.9854 41.8316 20.9453 41.6313 20.9453 41.429C20.9453 41.2266 20.9854 41.0263 21.0633 40.8396C21.1411 40.6528 21.2553 40.4834 21.399 40.341L24.3808 37.3592C24.6693 37.0689 25.0596 36.9027 25.4688 36.8958C25.67 36.8968 25.8691 36.9376 26.0546 37.0156C26.2401 37.0937 26.4084 37.2075 26.5499 37.3507C26.6913 37.4938 26.8032 37.6634 26.8791 37.8499C26.9549 38.0363 26.9933 38.2358 26.9919 38.4371C26.9921 38.8392 26.836 39.2256 26.5568 39.5149L23.5548 42.5169C23.2552 42.7858 22.8629 42.9277 22.4606 42.9127C22.0583 42.8976 21.6777 42.7268 21.399 42.4363V42.5169ZM47.5907 30.6702C46.836 30.467 46.1436 30.0792 45.5759 29.542V29.4412L41.5464 25.4117C41.1671 25.0324 40.6525 24.8192 40.116 24.8192C39.5795 24.8192 39.0649 25.0324 38.6855 25.4117C38.3061 25.7911 38.093 26.3057 38.093 26.8422C38.093 27.3787 38.3061 27.8933 38.6855 28.2727L42.715 32.3022C42.9578 32.5959 43.0824 32.9695 43.0644 33.3502C43.0464 33.7308 42.8871 34.0911 42.6176 34.3605C42.3481 34.63 41.9879 34.7893 41.6072 34.8073C41.2266 34.8253 40.8529 34.7007 40.5592 34.4579C40.3748 34.2609 40.1528 34.1029 39.9062 33.9932C39.6596 33.8836 39.3935 33.8245 39.1237 33.8196C38.8539 33.8147 38.5858 33.8639 38.3354 33.9645C38.0849 34.065 37.8572 34.2148 37.6657 34.4049C37.4742 34.5951 37.3228 34.8217 37.2205 35.0714C37.1182 35.3212 37.0671 35.5889 37.0701 35.8587C37.0731 36.1286 37.1303 36.3951 37.2382 36.6424C37.3461 36.8898 37.5026 37.1129 37.6983 37.2987C37.8414 37.4394 37.9551 37.6071 38.0328 37.7922C38.1104 37.9773 38.1504 38.1759 38.1504 38.3766C38.1504 38.5773 38.1104 38.776 38.0328 38.961C37.9551 39.1461 37.8414 39.3139 37.6983 39.4545C37.5559 39.5983 37.3865 39.7124 37.1997 39.7903C37.013 39.8681 36.8127 39.9082 36.6103 39.9082C36.408 39.9082 36.2077 39.8681 36.0209 39.7903C35.8342 39.7124 35.6647 39.5983 35.5224 39.4545C35.1449 39.0793 34.6342 38.8686 34.102 38.8686C33.5697 38.8686 33.0591 39.0793 32.6816 39.4545C32.3063 39.832 32.0957 40.3426 32.0957 40.8749C32.0957 41.4072 32.3063 41.9178 32.6816 42.2953C32.9701 42.5812 33.1333 42.97 33.1352 43.3761C33.1371 43.7823 32.9775 44.1726 32.6917 44.4611C32.4058 44.7497 32.017 44.9129 31.6108 44.9147C31.2046 44.9166 30.8143 44.7571 30.5258 44.4712L28.914 42.8594L29.4781 42.3154C29.9965 41.7988 30.4079 41.185 30.6885 40.5091C30.9692 39.8331 31.1137 39.1085 31.1137 38.3766C31.1137 37.6447 30.9692 36.9201 30.6885 36.2442C30.4079 35.5683 29.9965 34.9544 29.4781 34.4378C28.5427 33.4799 27.2879 32.8991 25.9523 32.8058C25.8563 31.5067 25.2989 30.2848 24.3808 29.3606C23.453 28.4629 22.2425 27.9147 20.9558 27.8093C20.844 26.5102 20.2808 25.2913 19.3641 24.3641C18.768 23.7499 18.0372 23.2827 17.2295 22.9995C16.4217 22.7162 15.5592 22.6247 14.7101 22.7321C14.3798 21.4723 13.6085 20.3727 12.5364 19.6332C11.4642 18.8938 10.1623 18.5636 8.8673 18.7026V16.6879C8.86604 13.5403 10.0925 10.5163 12.286 8.25891C14.4795 6.00148 17.4669 4.68862 20.6133 4.59943L17.3897 7.11786C16.0682 8.18345 15.2188 9.72586 15.0245 11.4122C14.8303 13.0986 15.3069 14.7938 16.3514 16.1319C17.396 17.47 18.9248 18.3437 20.6079 18.5646C22.291 18.7855 23.9935 18.3357 25.3479 17.3125L28.7327 14.6732H36.2477L44.1858 22.7321L48.9607 27.4869C49.2948 27.8571 49.4798 28.3381 49.4798 28.8368C49.4798 29.3355 49.2948 29.8165 48.9607 30.1867C48.7866 30.3786 48.5622 30.5181 48.313 30.5893C48.0638 30.6605 47.7997 30.6606 47.5504 30.5896L47.5907 30.6702Z" fill="#464646"/>
</svg>
